<?xml version="1.0" encoding="UTF-8" standalone="no"?>
<!DOCTYPE svg PUBLIC "-//W3C//DTD SVG 1.1//EN"
 "http://www.w3.org/Graphics/SVG/1.1/DTD/svg11.dtd">
<!-- Generated by graphviz version 2.43.0 (0)
 -->
<!-- Title: html_fsm Pages: 1 -->
<svg width="585pt" height="152pt"
 viewBox="0.00 0.00 584.97 152.27" xmlns="http://www.w3.org/2000/svg" xmlns:xlink="http://www.w3.org/1999/xlink">
<g id="graph0" class="graph" transform="scale(1 1) rotate(0) translate(4 148.27)">
<title>html_fsm</title>
<polygon fill="white" stroke="transparent" points="-4,4 -4,-148.27 580.97,-148.27 580.97,4 -4,4"/>
<!-- Head -->
<g id="node1" class="node">
<title>Head</title>
<ellipse fill="none" stroke="black" cx="28.97" cy="-42.05" rx="29.5" ry="29.5"/>
<text text-anchor="middle" x="28.97" y="-38.35" font-family="Times,serif" font-size="14.00">Head</text>
</g>
<!-- Link1 -->
<g id="node2" class="node">
<title>Link1</title>
<ellipse fill="none" stroke="black" cx="121.97" cy="-81.05" rx="27.1" ry="27.1"/>
<text text-anchor="middle" x="121.97" y="-77.35" font-family="Times,serif" font-size="14.00">Link</text>
</g>
<!-- Head&#45;&gt;Link1 -->
<g id="edge1" class="edge">
<title>Head&#45;&gt;Link1</title>
<path fill="none" stroke="black" d="M56.29,-53.33C65.92,-57.46 76.95,-62.18 87.14,-66.55"/>
<polygon fill="black" stroke="black" points="86.01,-69.87 96.58,-70.6 88.77,-63.44 86.01,-69.87"/>
</g>
<!-- Title -->
<g id="node3" class="node">
<title>Title</title>
<ellipse fill="none" stroke="black" cx="211.97" cy="-42.05" rx="27.1" ry="27.1"/>
<text text-anchor="middle" x="211.97" y="-38.35" font-family="Times,serif" font-size="14.00">Title</text>
</g>
<!-- Head&#45;&gt;Title -->
<g id="edge2" class="edge">
<title>Head&#45;&gt;Title</title>
<path fill="none" stroke="black" d="M58.25,-42.05C89.61,-42.05 140.28,-42.05 174.57,-42.05"/>
<polygon fill="black" stroke="black" points="174.65,-45.55 184.65,-42.05 174.65,-38.55 174.65,-45.55"/>
</g>
<!-- Link1&#45;&gt;Link1 -->
<g id="edge3" class="edge">
<title>Link1&#45;&gt;Link1</title>
<path fill="none" stroke="black" d="M105.79,-103.42C103.04,-115.42 108.44,-126.35 121.97,-126.35 131.49,-126.35 136.98,-120.95 138.45,-113.57"/>
<polygon fill="black" stroke="black" points="141.94,-113.32 138.15,-103.42 134.94,-113.52 141.94,-113.32"/>
</g>
<!-- Link1&#45;&gt;Title -->
<g id="edge4" class="edge">
<title>Link1&#45;&gt;Title</title>
<path fill="none" stroke="black" d="M147.48,-70.19C156.73,-66.09 167.42,-61.35 177.36,-56.95"/>
<polygon fill="black" stroke="black" points="178.87,-60.11 186.59,-52.86 176.03,-53.71 178.87,-60.11"/>
</g>
<!-- Link2 -->
<g id="node4" class="node">
<title>Link2</title>
<ellipse fill="none" stroke="black" cx="302.97" cy="-81.05" rx="27.1" ry="27.1"/>
<text text-anchor="middle" x="302.97" y="-77.35" font-family="Times,serif" font-size="14.00">Link</text>
</g>
<!-- Title&#45;&gt;Link2 -->
<g id="edge5" class="edge">
<title>Title&#45;&gt;Link2</title>
<path fill="none" stroke="black" d="M237.29,-52.71C246.91,-56.92 258.11,-61.83 268.48,-66.37"/>
<polygon fill="black" stroke="black" points="267.12,-69.6 277.68,-70.41 269.93,-63.19 267.12,-69.6"/>
</g>
<!-- Body -->
<g id="node5" class="node">
<title>Body</title>
<ellipse fill="none" stroke="black" cx="395.97" cy="-42.05" rx="29.8" ry="29.8"/>
<text text-anchor="middle" x="395.97" y="-38.35" font-family="Times,serif" font-size="14.00">Body</text>
</g>
<!-- Title&#45;&gt;Body -->
<g id="edge6" class="edge">
<title>Title&#45;&gt;Body</title>
<path fill="none" stroke="black" d="M239.44,-42.05C269.99,-42.05 320.55,-42.05 355.69,-42.05"/>
<polygon fill="black" stroke="black" points="356.07,-45.55 366.07,-42.05 356.07,-38.55 356.07,-45.55"/>
</g>
<!-- Link2&#45;&gt;Link2 -->
<g id="edge7" class="edge">
<title>Link2&#45;&gt;Link2</title>
<path fill="none" stroke="black" d="M286.79,-103.42C284.04,-115.42 289.44,-126.35 302.97,-126.35 312.49,-126.35 317.98,-120.95 319.45,-113.57"/>
<polygon fill="black" stroke="black" points="322.94,-113.32 319.15,-103.42 315.94,-113.52 322.94,-113.32"/>
</g>
<!-- Link2&#45;&gt;Body -->
<g id="edge8" class="edge">
<title>Link2&#45;&gt;Body</title>
<path fill="none" stroke="black" d="M328.36,-70.6C337.79,-66.56 348.78,-61.85 359.08,-57.43"/>
<polygon fill="black" stroke="black" points="360.46,-60.65 368.28,-53.49 357.71,-54.21 360.46,-60.65"/>
</g>
<!-- H1 -->
<g id="node6" class="node">
<title>H1</title>
<ellipse fill="none" stroke="black" cx="483.97" cy="-77.05" rx="21.4" ry="21.4"/>
<text text-anchor="middle" x="483.97" y="-73.35" font-family="Times,serif" font-size="14.00">H1</text>
</g>
<!-- Body&#45;&gt;H1 -->
<g id="edge9" class="edge">
<title>Body&#45;&gt;H1</title>
<path fill="none" stroke="black" d="M424.18,-53.12C433.85,-57.06 444.76,-61.5 454.53,-65.48"/>
<polygon fill="black" stroke="black" points="453.25,-68.73 463.83,-69.26 455.89,-62.25 453.25,-68.73"/>
</g>
<!-- P -->
<g id="node7" class="node">
<title>P</title>
<ellipse fill="none" stroke="black" cx="558.97" cy="-77.05" rx="18" ry="18"/>
<text text-anchor="middle" x="558.97" y="-73.35" font-family="Times,serif" font-size="14.00">P</text>
</g>
<!-- Body&#45;&gt;P -->
<g id="edge10" class="edge">
<title>Body&#45;&gt;P</title>
<path fill="none" stroke="black" d="M426.11,-39.74C448.3,-38.85 479.35,-39.49 505.42,-47.05 515.9,-50.09 526.53,-55.61 535.47,-61.09"/>
<polygon fill="black" stroke="black" points="533.79,-64.17 544.08,-66.68 537.6,-58.3 533.79,-64.17"/>
</g>
<!-- H1&#45;&gt;H1 -->
<g id="edge12" class="edge">
<title>H1&#45;&gt;H1</title>
<path fill="none" stroke="black" d="M471.19,-94.49C467.86,-105.71 472.12,-116.5 483.97,-116.5 492.12,-116.5 496.68,-111.4 497.65,-104.56"/>
<polygon fill="black" stroke="black" points="501.13,-104.14 496.75,-94.49 494.15,-104.76 501.13,-104.14"/>
</g>
<!-- H1&#45;&gt;P -->
<g id="edge11" class="edge">
<title>H1&#45;&gt;P</title>
<path fill="none" stroke="black" d="M504.92,-70.96C513.08,-70.26 522.65,-70.12 531.39,-70.53"/>
<polygon fill="black" stroke="black" points="531.26,-74.03 541.5,-71.3 531.79,-67.05 531.26,-74.03"/>
</g>
<!-- P&#45;&gt;H1 -->
<g id="edge13" class="edge">
<title>P&#45;&gt;H1</title>
<path fill="none" stroke="black" d="M541.5,-82.8C533.71,-83.67 524.15,-83.97 515.13,-83.71"/>
<polygon fill="black" stroke="black" points="515.1,-80.2 504.92,-83.14 514.71,-87.19 515.1,-80.2"/>
</g>
<!-- P&#45;&gt;P -->
<g id="edge14" class="edge">
<title>P&#45;&gt;P</title>
<path fill="none" stroke="black" d="M547.05,-90.72C542.28,-101.71 546.25,-113.05 558.97,-113.05 567.72,-113.05 572.33,-107.69 572.8,-100.77"/>
<polygon fill="black" stroke="black" points="576.2,-99.89 570.89,-90.72 569.32,-101.2 576.2,-99.89"/>
</g>
</g>
</svg>
