<?xml version="1.0" encoding="UTF-8" standalone="no"?>
<!DOCTYPE svg PUBLIC "-//W3C//DTD SVG 1.1//EN"
 "http://www.w3.org/Graphics/SVG/1.1/DTD/svg11.dtd">
<!-- Generated by graphviz version 2.43.0 (0)
 -->
<!-- Title: switch_fsm Pages: 1 -->
<svg width="189pt" height="57pt"
 viewBox="0.00 0.00 188.50 56.75" xmlns="http://www.w3.org/2000/svg" xmlns:xlink="http://www.w3.org/1999/xlink">
<g id="graph0" class="graph" transform="scale(1 1) rotate(0) translate(4 52.75)">
<title>switch_fsm</title>
<polygon fill="white" stroke="transparent" points="-4,4 -4,-52.75 184.5,-52.75 184.5,4 -4,4"/>
<!-- On -->
<g id="node1" class="node">
<title>On</title>
<ellipse fill="none" stroke="black" cx="27.5" cy="-22.75" rx="21.4" ry="21.4"/>
<text text-anchor="middle" x="27.5" y="-19.05" font-family="Times,serif" font-size="14.00">On</text>
</g>
<!-- Off -->
<g id="node2" class="node">
<title>Off</title>
<ellipse fill="none" stroke="black" cx="151.5" cy="-22.75" rx="23" ry="23"/>
<text text-anchor="middle" x="151.5" y="-19.05" font-family="Times,serif" font-size="14.00">Off</text>
</g>
<!-- On&#45;&gt;Off -->
<g id="edge1" class="edge">
<title>On&#45;&gt;Off</title>
<path fill="none" stroke="black" d="M48.6,-28.02C58.18,-30.27 69.86,-32.63 80.5,-33.75 93.28,-35.08 107.28,-33.5 119.38,-31.16"/>
<polygon fill="black" stroke="black" points="120.42,-34.51 129.44,-28.96 118.93,-27.67 120.42,-34.51"/>
<text text-anchor="middle" x="88.5" y="-37.55" font-family="Times,serif" font-size="14.00">off</text>
</g>
<!-- On&#45;&gt;Off -->
<!-- Off&#45;&gt;On -->
<g id="edge3" class="edge">
<title>Off&#45;&gt;On</title>
<path fill="none" stroke="black" d="M130.81,-12.56C116.9,-6.56 97.74,-0.7 80.5,-3.75 72.61,-5.15 64.33,-7.65 56.77,-10.39"/>
<polygon fill="black" stroke="black" points="55.38,-7.18 47.32,-14.06 57.91,-13.7 55.38,-7.18"/>
<text text-anchor="middle" x="88.5" y="-7.55" font-family="Times,serif" font-size="14.00">on</text>
</g>
</g>
</svg>
